<svg xmlns="http://www.w3.org/2000/svg" xml:space="preserve" id="Layer_1" x="0" y="0" version="1.1" viewBox="0 0 16 16"><style>.st0{fill:#e1211c}</style><path d="M15.01 3.66c.03 1.99-1.55 3.62-3.52 3.64-1.98.02-3.57-1.59-3.57-3.6 0-1.95 1.51-3.51 3.45-3.58 1.95-.06 3.61 1.56 3.64 3.54zM8.08 12.36c-.02 2-1.65 3.59-3.62 3.53-1.97-.06-3.52-1.71-3.47-3.7.05-1.92 1.65-3.48 3.57-3.47 1.98.02 3.54 1.63 3.52 3.64zM7.13.04c-1.35 2.48-1.35 4.84-.02 7.31-2.03-.02-3.73-.43-5.1-1.75C.82 4.45.83 2.95 2.02 1.8 3.39.49 5.11.11 7.13.04zM8.8 15.96c1.45-2.51 1.36-4.83.06-7.26 1.92-.04 3.53.39 4.89 1.53 1.47 1.23 1.47 2.93.02 4.17-1.36 1.15-2.99 1.55-4.97 1.56z" class="st0"/></svg>