<svg version="1.1" id="Layer_1" xmlns="http://www.w3.org/2000/svg" x="0" y="0" viewBox="0 0 16 16" xml:space="preserve"><style>.st0{fill:#fff}.st1{fill:none}.st2{fill:#7cc144}.st3{fill:#f9a534}.st4{fill:#fbd00a}</style><path class="st0" d="M8.27 7.95c0-1.41.46-2.71 1.24-3.77l-.82-2.35a6.272 6.272 0 0 0-4.54 6.03c0 3.46 2.77 6.26 6.2 6.26.68 0 1.33-.11 1.94-.32-2.35-.88-4.02-3.17-4.02-5.85z"/><path class="st0" d="M4.16 7.86c0-.63.1-1.23.26-1.81L1.7 3.69C1.04 4.37.58 5.15.3 6.02c-.16.5-.26 1.01-.3 1.52v.27c-.08 2.71 1.59 5.28 4.24 6.17 1.44.48 2.93.39 4.24-.14-2.51-.8-4.32-3.17-4.32-5.98z"/><path class="st1" d="M.64 6.17c-1.01 3.09.65 6.4 3.69 7.41 1.21.4 2.44.38 3.57.02a6.256 6.256 0 0 1-3.74-5.74c0-.45.04-.88.14-1.31L1.67 4.28c-.44.54-.8 1.18-1.03 1.89z"/><path class="st2" d="M4.33 13.59C1.29 12.57-.37 9.25.64 6.18c.23-.71.59-1.35 1.02-1.89l2.62 2.28c.03-.15.07-.3.11-.45L1.7 3.76l-.06.04c-.07.09-.14.17-.21.26h-.01a6.35 6.35 0 0 0-1.09 2c-1.06 3.27.68 6.77 3.9 7.84 1.41.47 2.86.39 4.14-.11-.16-.05-.32-.12-.48-.18-1.12.36-2.36.38-3.56-.02z"/><path class="st1" d="M4.2 8.84c-.35.18-.6.4-.56.47s.32.01.65-.15c-.03-.1-.04-.22-.06-.34-.01.02-.02.02-.03.02zM3.36 7.13c-.03.09.24.27.63.38.06.02.12.04.18.05l.03-.33c-.04-.01-.07-.03-.11-.04-.37-.11-.7-.14-.73-.06z"/><path class="st2" d="M4.62 10.26c-.49.48-.98 1.03-1.14 1.52-.1.29-.06.52.13.69.2.19.52.36.89.49.36.13.72.17 1.01.14.25-.02.41-.17.51-.47.03-.06.04-.15.05-.22a6.632 6.632 0 0 1-1.45-2.15zM3.98 7.51c-.38-.12-.66-.29-.63-.38.03-.09.36-.05.73.06l.1.03c.02-.11.03-.23.05-.35-.59-.67-1.42-1.48-2.05-1.52a.472.472 0 0 0-.43.2c-.18.2-.36.52-.49.89-.12.36-.16.73-.14 1.02.02.19.1.31.24.41.57.38 1.9.16 2.8-.05 0-.09 0-.16.01-.24-.06-.02-.13-.05-.19-.07zM3.64 9.32c-.04-.07.21-.29.56-.47.01 0 .02-.01.03-.01-.01-.08-.03-.17-.03-.25-1.28-.1-2.71-.01-2.91.6-.03.06-.04.12-.03.21.01.28.11.62.29.98.16.34.4.64.62.82.14.13.29.16.46.13.59-.13 1.28-1.01 1.76-1.76-.03-.13-.07-.26-.1-.38-.32.13-.61.2-.65.13z"/><path class="st1" d="M6.47 3.5c-2.4 2.16-2.6 5.86-.47 8.29a5.745 5.745 0 0 0 5.76 1.79c-2.07-1.01-3.48-3.15-3.48-5.63 0-1.23.35-2.37.95-3.34l-.78-2.28c-.71.25-1.39.64-1.98 1.17z"/><path class="st3" d="M6 11.79c-2.13-2.43-1.93-6.13.47-8.29.59-.53 1.27-.93 1.97-1.17l.79 2.28c.08-.13.16-.26.26-.38l-.81-2.3c-.07 0-.18.03-.18.03-.82.26-1.58.69-2.26 1.29-2.53 2.28-2.75 6.2-.49 8.77a6.11 6.11 0 0 0 6.48 1.78c-.16-.06-.31-.13-.47-.2-2.04.5-4.28-.12-5.76-1.81z"/><path class="st1" d="M8.12 9.82c.04.04.2-.02.39-.16-.04-.1-.06-.22-.09-.34-.22.23-.36.43-.3.5zM7.38 7.7c0 .1.31.19.7.21.06 0 .13.01.18.01 0-.11 0-.21.01-.32h-.18c-.38-.03-.7.02-.71.1zM8.34 5.7c-.05.06.04.24.2.45.03-.11.07-.21.1-.32-.15-.1-.26-.16-.3-.13z"/><path class="st3" d="M9.07 11.02c-.27.53-.44 1.05-.36 1.44.03.17.13.29.3.37.24.13.59.2.98.23.3.02.59 0 .83-.06-.72-.52-1.31-1.2-1.75-1.98zM8.34 5.7c.04-.04.16.02.3.13.1-.28.22-.56.36-.83-.18-.63-.44-1.22-.79-1.44-.15-.1-.3-.12-.47-.05-.26.08-.57.27-.86.54-.29.25-.51.54-.64.8a.54.54 0 0 0 .01.48c.27.55 1.32 1 2.17 1.28.04-.15.07-.31.12-.46-.17-.21-.25-.39-.2-.45zM8.27 7.92c-.06 0-.12 0-.18-.01-.4-.02-.7-.12-.7-.21.01-.09.33-.14.72-.13.06 0 .12.01.18.01.01-.09.01-.16.02-.25-1.04-.72-2.3-1.35-2.77-.93-.05.04-.1.11-.13.18-.13.24-.21.61-.23 1-.02.38.02.76.13 1.03.06.18.16.29.33.34.63.21 1.83-.33 2.65-.77 0-.09-.01-.16-.01-.24-.01 0-.01-.01-.01-.02zM8.12 9.82c-.06-.06.08-.27.31-.5-.03-.13-.05-.24-.07-.37-.78.15-1.73.41-2.19.84-.23.2-.31.43-.23.67.09.27.27.57.53.87.25.29.54.52.8.63.23.11.44.05.68-.15.31-.28.59-.8.83-1.4-.1-.24-.19-.5-.26-.76-.2.15-.37.21-.4.17z"/><path class="st0" d="M13.73 14.17c-3.07-.36-5.46-3.01-5.46-6.21 0-3.39 2.66-6.16 6-6.26.07 0 .76-.02 1.73.24l-2.27 12.23z"/><g><path class="st4" d="M12.18 6.4c.05-.07.36.04.69.26.09.05.16.12.23.18-.56-1.24-1.42-2.7-2.09-2.55-.07.01-.13.04-.2.09-.23.15-.48.41-.69.74-.2.32-.36.67-.4.96-.04.17 0 .32.13.44.58.66 2.64.69 3.38.68-.13-.03-.33-.13-.54-.27-.33-.21-.56-.46-.51-.53z"/></g><g><path class="st4" d="M11.8 8.5c-.02-.1.28-.22.66-.31.16-.03.3-.05.43-.05-.74-.3-2.19-.81-3.01-.64-.31.06-.48.2-.53.46-.06.28-.05.64.03 1.03.08.37.21.71.38.96.15.21.36.29.66.21.68-.15 1.65-.94 2.43-1.72-.1.03-.21.06-.33.1-.38.07-.7.06-.72-.04z"/></g><g><path class="st4" d="M13.66 9.09c0-.01 0-.01 0 0 0-.01-.01-.01 0 0-.01-.01-.01-.01 0 0zM13.4 9.78c-.22.33-.45.56-.53.51-.08-.05.03-.37.25-.7.13-.2.28-.37.38-.46-.76.33-2.47 1.15-2.73 1.95-.05.18-.03.33.07.48.14.23.4.49.73.7.32.21.66.36.94.4.08.02.14.01.21 0 .7-.15.93-2.01.93-3.4-.04.14-.12.33-.25.52z"/><path class="st0" d="M13.66 9.09v.18c.02-.1.02-.17 0-.18zM13.5 9.14c.05-.02.1-.04.14-.06-.03-.01-.08.01-.14.06z"/></g><path class="st4" d="m15.96 1.96-.36-.1c-.78-.15-1.59-.16-2.42.02-3.31.7-5.43 3.98-4.75 7.33a6.164 6.164 0 0 0 4.92 4.85l.13.02c.02 0 .03 0 .04.01l.17.03 2.27-12.16zm-7.21 7.2c-.65-3.19 1.37-6.3 4.5-6.95.78-.17 1.55-.16 2.28-.02L13.4 13.75c-2.25-.41-4.14-2.17-4.65-4.59zM13.95 6.45z"/><path class="st4" d="M13.77 5.88c-.07-.39-.06-.72.03-.74.09-.02.23.29.3.67.02.1.03.2.04.29.52-1.26.99-2.89.43-3.27a.61.61 0 0 0-.2-.09c-.27-.07-.63-.06-1.02.01-.37.07-.73.2-.97.37-.16.1-.23.23-.24.41-.08.88 1.31 2.39 1.82 2.92-.07-.12-.15-.33-.19-.57z"/></svg>