<?xml version="1.0" encoding="utf-8"?>
<!-- Generator: Adobe Illustrator 27.6.1, SVG Export Plug-In . SVG Version: 6.00 Build 0)  -->
<svg version="1.1" id="Layer_1" xmlns="http://www.w3.org/2000/svg" xmlns:xlink="http://www.w3.org/1999/xlink" x="0px" y="0px"
	 viewBox="0 0 16 16" style="enable-background:new 0 0 16 16;" xml:space="preserve">
<style type="text/css">
	.st0{fill:#87B24F;}
</style>
<path class="st0" d="M7.9,1.8C8,1.7,8,1.6,8.1,1.5c0.3-0.4,0.8-0.7,1.3-0.9c0.4-0.2,0.9-0.3,1.3-0.3c0.7,0,1.3,0,1.9,0.2
	c0.6,0.2,1.1,0.5,1.6,0.9c0.7,0.6,1.1,1.3,1.4,2.1c0.2,0.6,0.3,1.3,0.3,1.9c0.1,1.4-0.1,2.7-0.6,4c-0.3,0.7-0.6,1.3-1.1,1.8
	c-0.7,0.9-1.6,1.4-2.7,1.6c-0.8,0.2-1.7,0-2.5-0.3c-1-0.4-1.7-1.1-2.2-2C6.7,10.3,6.5,10,6.4,9.7c0-0.1-0.1-0.1-0.1-0.2
	c0,0.1,0,0.1,0,0.2c0,0.6,0,1.3,0,1.9c0,0.3-0.2,0.6-0.6,0.6c-0.3,0-0.6-0.2-0.6-0.6c0-1.4,0-2.9,0-4.3c0-1,0-2,0-3
	c0-0.3,0.1-0.5,0.4-0.5C5.9,3.7,6.3,4,6.3,4.3c0,0.1,0,0.1,0,0.2c0,1.1,0,2.2,0,3.2c0,0,0,0.1,0,0.1c0,0,0,0,0.1,0
	C7,7,7.7,6.2,8.4,5.4C8.8,5,9.2,4.5,9.6,4c0.2-0.2,0.3-0.3,0.6-0.2c0.5,0.1,0.5,0.6,0.3,0.9c-0.1,0.2-0.3,0.4-0.4,0.5
	C9.9,5.5,9.6,5.7,9.4,6C9.2,6.3,8.9,6.5,8.7,6.8C8.4,7.2,8,7.6,7.7,8C7.5,8.2,7.3,8.4,7.1,8.6c0,0,0,0.1,0,0.1
	c0.2,0.5,0.5,1,0.8,1.5c0.3,0.5,0.8,1,1.3,1.3c0.4,0.3,0.7,0.5,1.2,0.6c0.6,0.2,1.2,0.1,1.7-0.2c0.7-0.3,1.3-0.9,1.7-1.6
	c0.4-0.7,0.6-1.4,0.7-2.2c0.1-0.4,0.1-0.8,0.2-1.3c0.1-1.1,0-2.2-0.3-3.2c-0.2-0.5-0.4-1-0.7-1.4c-0.5-0.6-1.1-0.9-1.8-1
	c-0.4,0-0.8-0.1-1.2,0C9.9,1.4,9.3,1.7,8.8,2.2C8.5,2.6,8.3,3,8.2,3.5c0,0.2,0,0.2-0.2,0.2c-0.1,0-0.2,0-0.2,0c-0.1,0-0.1,0-0.1-0.1
	C7.6,3.3,7.4,2.9,7.2,2.6c-0.3-0.4-0.7-0.8-1.1-1C5.9,1.5,5.6,1.4,5.4,1.3C4.9,1.2,4.5,1.2,4,1.3c-0.5,0.1-1,0.3-1.4,0.7
	C2.2,2.3,1.8,2.7,1.6,3.2c-0.2,0.5-0.4,1-0.5,1.5C1,5.1,1,5.6,1,6.1c0,0.8,0.1,1.6,0.4,2.4c0.3,0.9,0.8,1.8,1.5,2.6
	c0.7,0.8,1.5,1.5,2.3,2.1c0.7,0.4,1.3,0.8,2.1,1.2c0.7,0.3,1.5,0.7,2.3,0.9c0.1,0,0.1,0,0.1,0.1c0,0.1-0.1,0.2-0.1,0.4
	c0,0.1,0,0.1-0.1,0.1c-0.3-0.1-0.6-0.1-0.9-0.2c-1.2-0.3-2.3-0.6-3.3-1.2c-0.8-0.4-1.5-0.9-2.1-1.4c-0.5-0.5-1-1-1.3-1.5
	c-0.6-0.8-1-1.8-1.3-2.7C0.2,7.9,0.1,7.2,0.1,6.5C0,6.1,0,5.8,0,5.4c0-0.9,0.1-1.7,0.5-2.5C1,1.8,1.9,1.1,3,0.6
	c0.5-0.2,1-0.3,1.5-0.3c0.8,0,1.5,0.1,2.2,0.4c0.4,0.2,0.8,0.5,1,0.9C7.8,1.7,7.9,1.8,7.9,1.8z"/>
</svg>
