<svg xmlns="http://www.w3.org/2000/svg" xml:space="preserve" id="Layer_1" x="0" y="0" version="1.1" viewBox="0 0 16 16"><style>.st0{fill:#a6a8ab}.st1{fill:#1b75bb}.st2{fill:#ec1c24}.st3{fill:#0055a3}</style><path d="m16 7.8-2.8-4.4h-1.1L16 7.8z" class="st0"/><path d="m16 7.8-4.1-4.6-5.6-.4 9.7 5z" class="st1"/><path d="m0 3.4 15.9 4.3c-.1 0-.1-.1-.2-.2v-.1l-8.3-4H0z" class="st2"/><path d="M16 7.8 4 1.7h4.2L16 7.8z" class="st3"/><path d="m16 8.2-2.8 4.4h-1.1L16 8.2z" class="st0"/><path d="m16 8.2-4.1 4.6-5.6.5L16 8.2z" class="st1"/><path d="m7.4 12.6 8.2-4.1v-.1c.1 0 .1-.1.1-.1h.1L0 12.6h7.4z" class="st2"/><path d="M16 8.1 4.1 14.3h4.2L16 8.1z" class="st3"/><path d="M3.3 10.1c-.1 0-.1 0 0 0l.9-4.2c0-.1 0-.1.1-.1h.4s.1 0 .1.1l-.9 3.7h3s.1 0 .1.1l-.1.4s0 .1-.1.1l-3.5-.1zm8.4-.2c-.1.1-.3.1-.5.2s-.4.1-.6.1H8.5c-.4 0-.7-.1-.9-.3-.2-.2-.3-.5-.2-1 0 0 0-.1.1-.1h.4s.1 0 .1.1v.4c0 .2 0 .1.1.2.1 0 .1.1.3.1h2.8c.1 0 .2-.1.3-.1.1-.1.2-.1.2-.2.1-.1.1-.2.1-.3.1-.3 0-.5-.2-.6-.1-.1-.2-.1-.4-.1H9.4c-.6 0-1-.1-1.2-.2-.4-.2-.5-.6-.4-1.1.2-.8.7-1.2 1.6-1.2h2.1c1 0 1.4.4 1.2 1.2 0 0 0 .1-.1.1h-.4s-.1 0 0-.1v-.3c0-.1-.1-.2-.2-.2-.1-.1-.4-.1-.7-.1H8.8c-.1 0-.2.1-.2.1-.1.1-.2.3-.2.5-.1.2 0 .4.2.5.2.1.5.1.9.1H10.5c.3 0 .6 0 .8.1.2 0 .4.1.5.2.4.2.5.6.4 1 0 .5-.2.8-.5 1z"/></svg>