<?xml version="1.0" encoding="utf-8"?>
<!-- Generator: Adobe Illustrator 27.3.1, SVG Export Plug-In . SVG Version: 6.00 Build 0)  -->
<svg version="1.1" id="Layer_1" xmlns="http://www.w3.org/2000/svg" xmlns:xlink="http://www.w3.org/1999/xlink" x="0px" y="0px"
	 viewBox="0 0 16 16" style="enable-background:new 0 0 16 16;" xml:space="preserve">
<style type="text/css">
	.st0{fill:#186997;}
</style>
<path class="st0" d="M1,4c1.4-0.8,2.7-1.6,4.1-2.4C6,1.1,7,0.6,7.9,0C8,0,8.1,0,8.2,0.1c0.5,0.3,0.9,0.6,1.4,0.8
	c1.6,0.9,3.3,1.9,4.9,2.8c0.1,0,0.1,0.1,0.2,0.1C14.9,3.9,15,4,15,4.2c0,0.4,0,0.7,0,1.1c0,2.2,0,4.4,0,6.6c0,0.1,0,0.2-0.1,0.2
	c-0.3,0.2-0.6,0.3-0.9,0.5c-1.7,1-3.3,1.9-5,2.9c-0.3,0.2-0.6,0.3-0.8,0.5c-0.1,0-0.2,0-0.2,0c-0.8-0.5-1.6-0.9-2.5-1.4
	c-1.2-0.7-2.4-1.4-3.7-2.1c-0.1-0.1-0.3-0.2-0.4-0.3C1.2,12.1,1.1,12.1,1,12C1,9.4,1,6.7,1,4z M11.6,8c0-0.6,0-1.3,0-1.9
	c0-0.1,0-0.2-0.1-0.2C11,5.6,10.5,5.3,10.1,5C9.5,4.7,8.9,4.4,8.3,4C8.1,3.9,7.9,3.9,7.7,4c-1,0.6-2,1.2-3.1,1.8
	C4.4,5.9,4.4,6,4.4,6.3c0,1.2,0,2.4,0,3.6c0,0.2,0.1,0.3,0.2,0.4c0.5,0.3,1.1,0.6,1.6,0.9c0.5,0.3,1.1,0.6,1.6,0.9
	c0.1,0.1,0.2,0.1,0.3,0c0.2-0.1,0.4-0.2,0.5-0.3c0.9-0.5,1.8-1,2.7-1.6c0.1-0.1,0.2-0.2,0.2-0.3C11.6,9.2,11.6,8.6,11.6,8z"/>
</svg>
