<?xml version="1.0" encoding="utf-8"?>
<!-- Generator: Adobe Illustrator 27.3.1, SVG Export Plug-In . SVG Version: 6.00 Build 0)  -->
<svg version="1.1" id="Layer_1" xmlns="http://www.w3.org/2000/svg" xmlns:xlink="http://www.w3.org/1999/xlink" x="0px" y="0px"
	 viewBox="0 0 16 16" style="enable-background:new 0 0 16 16;" xml:space="preserve">
<style type="text/css">
	.st0{fill:#A3D51A;}
</style>
<path class="st0" d="M10.8,2.3c-0.2-0.5-0.4-0.9-0.7-1.2c-0.3-0.3-0.6-0.6-1-0.8C8.8,0.1,8.4,0,8,0C7.6,0,7.2,0.1,6.8,0.3
	c-0.4,0.2-0.7,0.5-1,0.8C5.5,1.4,5.3,1.8,5.2,2.3C5,2.8,4.9,3.3,4.9,3.8S5,4.9,5.2,5.4c0.2,0.5,0.4,0.8,0.6,1.2l0,0c0,0,0,0,0,0
	c0,0,0,0,0,0l0,0C6.3,7.3,7,8.1,7,9l-0.3,5.4C6.6,15.3,7.3,16,8,16c0.8,0,1.4-0.7,1.4-1.6L9.1,9c0-0.9,0.5-1.7,1-2.4c0,0,0,0,0-0.1
	c0.3-0.3,0.5-0.7,0.7-1.2c0.2-0.5,0.2-1,0.2-1.5S11,2.8,10.8,2.3L10.8,2.3z M9.6,6.4c0,0-0.1,0.1-0.2,0c0,0,0-0.1,0.1-0.2
	c0.3-0.3,0.7-1.1,0.7-2.7c0-0.9-0.5-1.8-1.2-2.4c-0.1-0.1-0.1-0.2,0-0.3C8.9,0.8,9,0.7,9,0.7c0.1,0,0.1,0,0.2,0.1
	c0.8,0.7,1.3,1.6,1.4,2.7C10.7,5.1,9.9,6.1,9.6,6.4L9.6,6.4z"/>
</svg>
