<svg xmlns="http://www.w3.org/2000/svg" xml:space="preserve" id="Layer_1" x="0" y="0" version="1.1" viewBox="0 0 16 16"><style>.st0{fill:#1d1f2a}</style><path d="M8 15.18C4.04 15.18.82 11.96.82 8 .82 4.04 4.04.82 8 .82c3.96 0 7.18 3.22 7.18 7.18 0 1.25-.32 2.43-.89 3.46l.7.43A8.017 8.017 0 0 0 16 8c0-4.41-3.59-8-8-8S0 3.59 0 8s3.59 8 8 8h.12v-.82H8z" class="st0"/><path fill="#194f90" d="M8.61 2.42c2.4.24 4.46 2.03 4.93 4.52.58 3.03-1.42 5.97-4.45 6.55-3.03.58-5.97-1.42-6.55-4.45-.26-1.36 0-2.71.64-3.83l-.54-.37C1.9 6.1 1.6 7.62 1.9 9.16a6.275 6.275 0 0 0 7.32 4.98 6.275 6.275 0 0 0 4.98-7.32c-.54-2.85-2.8-4.88-5.57-5.07l-.02.67z"/><path d="m9.8 7.95.25-2.07h2.36v.72h-1.6l-.09.81c.07-.04.15-.07.26-.1.11-.03.21-.04.32-.04.4 0 .71.12.93.36.22.24.32.57.32 1 0 .26-.06.49-.17.7-.12.21-.28.37-.49.48-.21.11-.46.17-.74.17-.25 0-.49-.05-.71-.16-.22-.1-.4-.25-.52-.43a.98.98 0 0 1-.2-.62h.94c.01.15.06.26.14.35.09.09.2.13.34.13.31 0 .47-.23.47-.7 0-.43-.19-.64-.58-.64-.22 0-.38.07-.49.21l-.74-.17zM8.03 7.95c-.12 0-.23.03-.31.09-.09.05-.15.12-.19.2v.28c0 .51.18.76.53.76.14 0 .26-.06.36-.19.1-.13.14-.29.14-.48 0-.2-.05-.36-.15-.48a.452.452 0 0 0-.38-.18zm.84-2.1v.73h-.04c-.35 0-.64.08-.86.25-.22.17-.36.4-.41.7.21-.21.48-.31.8-.31.35 0 .63.13.83.38.21.26.31.59.31 1 0 .26-.06.49-.18.71-.13.22-.3.39-.51.51-.22.12-.46.18-.73.18-.29 0-.54-.07-.77-.2-.23-.13-.4-.32-.53-.56-.12-.23-.18-.51-.19-.83v-.37c0-.42.09-.79.27-1.12.18-.34.44-.6.77-.79.33-.19.7-.28 1.1-.28h.14zM4.43 7.54h.44c.35 0 .52-.17.52-.51 0-.13-.04-.24-.12-.33a.484.484 0 0 0-.35-.13c-.12 0-.23.04-.32.11s-.14.16-.14.27h-.93c0-.21.06-.4.18-.57.12-.17.28-.3.49-.39.21-.09.44-.14.69-.14.45 0 .8.1 1.06.31.25.21.38.49.38.85 0 .17-.05.34-.16.49-.1.15-.26.28-.46.37.21.08.38.2.5.35.13.17.19.36.19.59 0 .36-.14.65-.42.87-.28.22-.64.32-1.09.32-.26 0-.51-.05-.74-.15-.23-.1-.4-.24-.51-.42-.12-.17-.18-.38-.18-.6h.94c0 .12.05.23.15.32.1.09.22.14.37.14.16 0 .3-.05.39-.14.1-.09.15-.21.15-.35 0-.2-.05-.35-.15-.43-.1-.09-.24-.13-.42-.13h-.46v-.7z" class="st0"/></svg>