<?xml version="1.0" encoding="utf-8"?>
<!-- Generator: Adobe Illustrator 27.6.1, SVG Export Plug-In . SVG Version: 6.00 Build 0)  -->
<svg version="1.1" id="Layer_1" xmlns="http://www.w3.org/2000/svg" xmlns:xlink="http://www.w3.org/1999/xlink" x="0px" y="0px"
	 viewBox="0 0 16 16" style="enable-background:new 0 0 16 16;" xml:space="preserve">
<style type="text/css">
	.st0{fill:#FFFFFF;}
	.st1{fill:#1D1F2A;}
	.st2{fill:#165090;}
</style>
<g>
	<path class="st0" d="M16,8c0,4.4-3.6,8-8,8c-4.4,0-8-3.6-8-8c0-4.4,3.6-8,8-8C12.4,0,16,3.6,16,8L16,8z"/>
	<path class="st1" d="M8,14.7c-3.7,0-6.7-3-6.7-6.7c0-3.7,3-6.7,6.7-6.7c3.7,0,6.7,3,6.7,6.7c0,1.2-0.3,2.3-0.8,3.2l0.7,0.4
		c0.6-1.1,0.9-2.3,0.9-3.6c0-4.1-3.4-7.5-7.5-7.5C3.9,0.5,0.5,3.9,0.5,8c0,4.1,3.4,7.5,7.5,7.5c0,0,0.1,0,0.1,0v-0.8
		C8.1,14.7,8.1,14.7,8,14.7L8,14.7L8,14.7z"/>
	<path class="st2" d="M8.6,2.8C10.9,3,12.8,4.7,13.2,7c0.5,2.8-1.3,5.6-4.2,6.1C6.2,13.7,3.5,11.8,2.9,9c-0.2-1.3,0-2.5,0.6-3.6L3,5
		C2.3,6.2,2,7.6,2.3,9.1c0.6,3.2,3.7,5.3,6.9,4.7c3.2-0.6,5.3-3.7,4.7-6.9c-0.5-2.7-2.6-4.6-5.2-4.7L8.6,2.8L8.6,2.8L8.6,2.8z"/>
	<path class="st1" d="M9.5,14.5L9.5,14.5l0.2,0.8c-0.1,0-0.1,0-0.2,0L9.5,15l-0.1,0.2l0,0l-0.2-0.1l0.1,0.4c-0.1,0-0.1,0-0.2,0
		l-0.1-0.8l0.1,0l0.4,0.3L9.5,14.5L9.5,14.5L9.5,14.5z"/>
	<path class="st1" d="M10.5,15l-0.3,0.1l0,0.1L10,15.2l0,0l0.1-0.9l0.1,0l0.6,0.6l0,0L10.5,15L10.5,15L10.5,15L10.5,15z M10.2,14.6
		l0,0.2l0.2-0.1L10.2,14.6L10.2,14.6L10.2,14.6z"/>
	<path class="st1" d="M11.6,14.6L11.6,14.6l-0.2,0.1l-0.2-0.2l-0.1,0l0.1,0.2c-0.1,0-0.1,0.1-0.2,0.1c-0.1-0.2-0.2-0.5-0.4-0.7
		c0.1-0.1,0.2-0.1,0.3-0.2c0.3-0.1,0.5,0.2,0.4,0.4L11.6,14.6L11.6,14.6L11.6,14.6z M11.1,14.2c0,0-0.1,0-0.1,0.1
		c0,0.1,0.1,0.1,0.1,0.2l0.1-0.1C11.3,14.3,11.2,14.1,11.1,14.2L11.1,14.2L11.1,14.2z"/>
	<polygon class="st1" points="11.9,14 11.9,14.2 12,14.3 11.9,14.4 11.4,13.8 11.6,13.7 11.8,14 11.8,13.8 11.8,13.5 12,13.4 
		12,13.9 12.5,14.1 12.3,14.2 11.9,14 11.9,14 	"/>
	<path class="st1" d="M12.6,13.1c-0.1,0.1-0.1,0.1-0.2,0.2l0.1,0.1l0.2-0.2c0,0,0.1,0.1,0.1,0.1l-0.2,0.2c0,0,0.1,0.1,0.1,0.1
		c0.1-0.1,0.1-0.1,0.2-0.2c0,0,0.1,0.1,0.1,0.1c-0.1,0.1-0.3,0.2-0.4,0.3c-0.2-0.2-0.3-0.4-0.5-0.6c0.1-0.1,0.2-0.2,0.4-0.3
		C12.6,13,12.6,13.1,12.6,13.1L12.6,13.1L12.6,13.1z"/>
	<path class="st1" d="M12.8,13c0,0-0.1-0.1-0.1-0.1l0.4-0.4c0,0,0.1,0.1,0.1,0.1l-0.1,0.1l0.5,0.4c0,0-0.1,0.1-0.1,0.1l-0.5-0.4
		L12.8,13L12.8,13L12.8,13z"/>
	<path class="st1" d="M13.9,12.3c0,0-0.1,0-0.1,0.1c-0.1,0.1-0.2,0.2-0.4,0.1c-0.3-0.2,0.1-0.7,0.4-0.5c0,0.1-0.1,0.1-0.1,0.2
		c-0.1-0.1-0.2,0.1-0.1,0.2c0,0,0.1,0,0.1-0.1c0.1-0.1,0.2-0.2,0.4-0.1c0.3,0.2-0.1,0.7-0.4,0.5c0-0.1,0.1-0.1,0.1-0.2
		C13.8,12.5,14,12.3,13.9,12.3L13.9,12.3L13.9,12.3z"/>
	<path class="st1" d="M9.7,8L10,6h2.2v0.7h-1.5l-0.1,0.8c0.1,0,0.1-0.1,0.2-0.1c0.1,0,0.2,0,0.3,0c0.4,0,0.7,0.1,0.9,0.3
		c0.2,0.2,0.3,0.5,0.3,0.9c0,0.2-0.1,0.5-0.2,0.7c-0.1,0.2-0.3,0.3-0.5,0.5c-0.2,0.1-0.4,0.2-0.7,0.2c-0.2,0-0.5,0-0.7-0.1
		c-0.2-0.1-0.4-0.2-0.5-0.4C9.7,9.1,9.7,8.9,9.7,8.7h0.9c0,0.1,0.1,0.2,0.1,0.3c0.1,0.1,0.2,0.1,0.3,0.1c0.3,0,0.4-0.2,0.4-0.7
		c0-0.4-0.2-0.6-0.5-0.6c-0.2,0-0.4,0.1-0.5,0.2L9.7,8L9.7,8L9.7,8z"/>
	<path class="st1" d="M8.9,6v0.7h0C8.5,6.7,8.2,6.8,8,6.9C7.8,7.1,7.7,7.3,7.6,7.6c0.2-0.2,0.4-0.3,0.7-0.3c0.3,0,0.6,0.1,0.8,0.4
		c0.2,0.2,0.3,0.6,0.3,0.9c0,0.2-0.1,0.5-0.2,0.7C9.2,9.4,9,9.6,8.8,9.7C8.6,9.8,8.4,9.9,8.1,9.9c-0.3,0-0.5-0.1-0.7-0.2
		C7.2,9.6,7,9.4,6.9,9.2C6.8,8.9,6.7,8.7,6.7,8.4V8C6.7,7.6,6.8,7.3,7,7c0.2-0.3,0.4-0.6,0.7-0.7C8,6.1,8.3,6,8.7,6H8.9L8.9,6L8.9,6
		z M8.1,7.9C8,7.9,7.9,8,7.8,8C7.7,8.1,7.6,8.1,7.6,8.2v0.3c0,0.5,0.2,0.7,0.5,0.7c0.1,0,0.2-0.1,0.3-0.2c0.1-0.1,0.1-0.3,0.1-0.4
		c0-0.2,0-0.3-0.1-0.5C8.3,8,8.2,7.9,8.1,7.9L8.1,7.9L8.1,7.9z"/>
	<path class="st1" d="M4.7,7.6h0.4c0.3,0,0.5-0.2,0.5-0.5c0-0.1,0-0.2-0.1-0.3C5.4,6.7,5.3,6.7,5.2,6.7c-0.1,0-0.2,0-0.3,0.1
		C4.8,6.8,4.7,6.9,4.7,7H3.8c0-0.2,0.1-0.4,0.2-0.5c0.1-0.2,0.3-0.3,0.5-0.4C4.7,6,4.9,6,5.1,6c0.4,0,0.8,0.1,1,0.3
		c0.2,0.2,0.4,0.5,0.4,0.8c0,0.2,0,0.3-0.1,0.5C6.2,7.7,6.1,7.8,5.9,7.9C6.1,8,6.3,8.1,6.4,8.2c0.1,0.1,0.2,0.3,0.2,0.5
		c0,0.3-0.1,0.6-0.4,0.8c-0.3,0.2-0.6,0.3-1,0.3c-0.2,0-0.5,0-0.7-0.1C4.2,9.6,4.1,9.5,4,9.3C3.8,9.2,3.8,9,3.8,8.8h0.9
		c0,0.1,0,0.2,0.1,0.3C4.9,9.2,5,9.2,5.2,9.2c0.2,0,0.3,0,0.4-0.1C5.6,9,5.7,8.9,5.7,8.7c0-0.2,0-0.3-0.1-0.4
		C5.4,8.3,5.3,8.2,5.1,8.2H4.7V7.6L4.7,7.6L4.7,7.6z"/>
	<path class="st1" d="M4.4,4.3L4.4,4.3L4.3,4.5L4,4.4L4,4.5l0.2,0.2c0,0.1-0.1,0.1-0.1,0.2C3.8,4.7,3.6,4.5,3.4,4.3
		C3.5,4.2,3.6,4.1,3.6,4c0.2-0.2,0.5,0,0.5,0.2L4.4,4.3L4.4,4.3L4.4,4.3z M3.8,4.2c0,0-0.1,0.1-0.1,0.1c0,0,0.1,0.1,0.2,0.1l0.1-0.1
		C4,4.2,3.9,4.1,3.8,4.2L3.8,4.2L3.8,4.2z"/>
	<path class="st1" d="M4.6,3.4C4.5,3.5,4.5,3.5,4.4,3.6l0.1,0.1l0.2-0.2c0,0,0.1,0.1,0.1,0.1L4.6,3.8c0,0,0.1,0.1,0.1,0.1
		c0.1-0.1,0.1-0.1,0.2-0.2c0,0,0.1,0.1,0.1,0.1C4.9,4,4.8,4.1,4.6,4.2C4.5,4,4.3,3.8,4.1,3.6c0.1-0.1,0.2-0.2,0.4-0.3
		C4.5,3.3,4.6,3.3,4.6,3.4L4.6,3.4L4.6,3.4z"/>
	<path class="st1" d="M4.9,3.2c0-0.1-0.1-0.1-0.1-0.2l0.5-0.3c0,0.1,0.1,0.1,0.1,0.2L5.2,3l0.3,0.5c-0.1,0-0.1,0.1-0.2,0.1L5,3.1
		L4.9,3.2L4.9,3.2L4.9,3.2z"/>
	<path class="st1" d="M6.2,3.1L5.9,3.2l0,0.1L5.7,3.4l0,0l0-0.9l0.1,0l0.6,0.6l0,0L6.2,3.1L6.2,3.1L6.2,3.1L6.2,3.1z M5.9,2.8l0,0.2
		L6.1,3L5.9,2.8L5.9,2.8L5.9,2.8z"/>
	<polygon class="st1" points="7,2.8 7.1,3 6.7,3.1 6.6,2.9 6.7,2.9 6.6,2.4 6.6,2.5 6.5,2.3 6.9,2.2 6.9,2.4 6.8,2.4 6.9,2.8 7,2.8 
		7,2.8 	"/>
	<path class="st1" d="M7.6,2.7l0.3,0c0,0.1,0,0.1,0,0.2c-0.2,0-0.3,0-0.5,0L7.3,2.1c0.1,0,0.1,0,0.2,0C7.6,2.5,7.6,2.4,7.6,2.7
		L7.6,2.7L7.6,2.7z"/>
</g>
</svg>
