<svg xmlns="http://www.w3.org/2000/svg" xml:space="preserve" id="Layer_1" x="0" y="0" version="1.1" viewBox="0 0 16 16"><style>.st2{fill:#fff}</style><path fill="#f15a29" d="M14.85 7.99c0 3.77-3.06 6.83-6.83 6.83s-6.83-3.06-6.83-6.83 3.06-6.83 6.83-6.83 6.83 3.06 6.83 6.83"/><path fill="#603913" d="M8.02-.01c-4.42 0-8 3.58-8 8s3.58 8 8 8 8-3.58 8-8-3.58-8-8-8m0 14.06c-3.35 0-6.07-2.72-6.07-6.07s2.72-6.07 6.07-6.07 6.07 2.72 6.07 6.07c-.01 3.36-2.72 6.07-6.07 6.07"/><path d="M8.02 14.47c-3.57 0-6.48-2.91-6.48-6.48 0-3.57 2.91-6.48 6.48-6.48 3.57 0 6.48 2.91 6.48 6.48s-2.91 6.48-6.48 6.48zm0-12.02c-3.05 0-5.54 2.48-5.54 5.54 0 3.05 2.48 5.54 5.54 5.54 3.05 0 5.54-2.48 5.54-5.54-.01-3.05-2.49-5.54-5.54-5.54z" class="st2"/><path d="M5.43 11.29a2.98 2.98 0 0 1-.93-.84c-.51-.68-.8-1.57-.8-2.55 0-.73.17-1.42.46-2.01.3-.58.72-1.08 1.27-1.39.36-.2.78-.32 1.21-.32a.67.67 0 0 1 0 1.34c-.19 0-.38.05-.56.15-.18.1-.36.26-.52.47-.31.42-.53 1.05-.53 1.76 0 .53.12 1.02.32 1.41.2.39.46.67.74.83.18.1.37.15.56.15a.67.67 0 0 1 0 1.34c-.45-.01-.86-.13-1.22-.34zM10.66 4.12c-.37 0-.67.3-.67.67v1.68c0 .09-.02.17-.07.26-.07.12-.2.26-.41.37-.13.07-.3.12-.48.15V4.81c0-.37-.3-.67-.67-.67-.36 0-.66.3-.66.67v6.28a.67.67 0 0 0 1.34 0v-2.5c.27.04.5.14.66.26.1.08.18.17.22.26.05.09.07.17.07.26v1.73a.67.67 0 0 0 1.34 0V9.37c0-.32-.08-.63-.23-.9-.12-.21-.27-.39-.44-.55.18-.16.33-.34.44-.55.15-.27.23-.58.23-.9V4.79a.683.683 0 0 0-.67-.67z" class="st2"/></svg>