<svg version="1.1" id="Layer_1" xmlns="http://www.w3.org/2000/svg" x="0" y="0" viewBox="0 0 278.4 385.4" xml:space="preserve"><style>.st1{fill:#013156}.st2{fill:#4c72de}.st5{fill:#22212d}</style><path d="M116.2 0h162.2v192.7h-56.2c-.3-1.1-.6-2.3-.9-3.4-2.2-7.2-5.5-13.9-9.7-20.2-5.5-8.1-12.2-15.2-18.4-22.8-4.6-5.6-9.2-11.3-13.5-17.2-4.8-6.5-8.2-13.8-10.4-21.6-1.5-5.3-2.1-10.7-2.2-16.2-.1-6.5-.1-13-.3-19.5-.1-2.5-.2-5.1-.5-7.6-.4-3-.9-6.1-1.6-9.1-1.5-6-4.5-11.2-8.3-16-5.2-6.5-11.6-11.8-18-17.2-4.4-3.7-8.8-7.4-13.1-11.2-3.5-3.1-6.4-6.8-9.1-10.6V0z" fill="#eaeef7"/><path class="st1" d="M244.8 192.8h33.6v192.7H107.5v-.6c1.3-7.5 4.5-14 9.7-19.5 5.2-5.6 11.6-9.5 18.4-12.7 5.9-2.8 11.9-5.3 17.9-7.9 7-3 13.8-6.3 20-10.9 5.5-4 10.1-8.8 13.4-14.8 2.8-5.2 3.7-10.9 3.9-16.7.1-2.9.1-5.8.3-8.7.1-1.8.2-3.6.5-5.3.9-6.3 3-12.1 6.4-17.4 5.2-8.2 12.4-14.5 19.7-20.8 6.1-5.2 12.3-10.3 17.7-16.3 6.5-7.4 11.5-15.6 12.4-25.8.2-2.6.4-5.3-.3-7.8-.8-2.7-1.8-5.1-2.7-7.5z"/><path class="st2" d="M244.8 192.8c.9 2.5 1.9 4.9 2.6 7.4.7 2.5.5 5.2.3 7.8-.9 10.2-5.9 18.4-12.4 25.8-5.3 6-11.6 11.1-17.7 16.3-7.3 6.3-14.5 12.6-19.7 20.8-3.4 5.4-5.5 11.2-6.4 17.4-.3 1.8-.4 3.5-.5 5.3-.1 2.9-.1 5.8-.3 8.7-.2 5.8-1.1 11.5-3.9 16.7-3.2 6-7.9 10.8-13.4 14.8-6.2 4.5-13 7.9-20 10.9-6 2.6-12 5.1-17.9 7.9-6.8 3.2-13.2 7.2-18.4 12.7-5.2 5.5-8.4 12.1-9.7 19.5v.6H86.3c-.2-1.4-.6-2.7-.7-4.1-.3-4.9.6-9.6 2.2-14.2 2.3-6.6 6.1-12.4 10.1-18.1 3.9-5.6 7.6-11.2 10.2-17.6 2.4-5.8 3.4-11.9 2.3-18-.8-4.8-2.1-9.5-3.4-14.1-1.8-6.3-4-12.5-5.7-18.8-1.1-4.3-1.7-8.7-1.1-13.2.9-7 3.2-13.5 6.9-19.3 4.4-6.8 9.1-13.4 13.8-19.9 5.7-7.8 10.6-16.1 13.3-25.4.9-3.1 1.1-6.4 1.7-9.6h84.5c.5 0 1-.2 1.5-.2h.2c7.7-.2 15.2-.2 22.7-.1z"/><path d="M0 192.7V0h67c.1.2.1.4.2.5.3 2.2.9 4.4.9 6.5 0 2.9-.3 5.8-1 8.5-1.1 4.1-2.6 8.2-4.2 12.2-2.6 6.3-5.6 12.3-8.2 18.5-2.4 5.9-4.2 12-3.3 18.5.3 2.6.7 5.2 1.4 7.7 1.1 3.5 2.3 7.1 4 10.3 3.3 6.2 7 12.1 10.5 18.1 2.8 4.9 5.6 9.7 8.2 14.7 3 5.7 4.2 11.8 4.5 18.2.1 1.8-.1 3.7-.5 5.5-.6 3.2-1.1 6.4-2.1 9.5-2 6.3-5 12.1-7.9 18-4.2 8.4-8.8 16.7-10.8 26-.5 0-1 .1-1.5.1H35c-11.6-.1-23.3-.1-35-.1z" fill="#7391e5"/><path d="M36.5 192.8h20.8c.5 0 1 0 1.5-.1h77.1c.1.1.1.2.2.3-.5 3.2-.8 6.5-1.7 9.6-2.7 9.4-7.6 17.6-13.3 25.4-4.8 6.5-9.5 13.1-13.8 19.9-3.8 5.8-6 12.4-6.9 19.3-.6 4.5 0 8.9 1.1 13.2 1.7 6.3 3.9 12.5 5.7 18.8 1.3 4.7 2.6 9.4 3.4 14.1 1 6.2.1 12.2-2.3 18-2.6 6.3-6.3 12-10.2 17.6-4 5.7-7.8 11.5-10.1 18.1-1.6 4.6-2.5 9.3-2.2 14.2.1 1.4.5 2.7.7 4.1H50.7c-.6-2.9-1.6-5.7-1.9-8.6-.5-4.6.6-9 1.9-13.4 1.8-6.2 4.7-11.9 7.6-17.7 3.3-6.5 6.6-12.9 8.5-20 1.5-5.3 2.1-10.7 1.3-16.2-.8-5.2-2.7-10-5.7-14.3-3.8-5.4-8-10.6-11.8-16-2.8-3.9-5.6-7.8-7.7-12-3.5-6.7-4.7-14.1-4.8-21.6-.1-2.3 0-4.5 0-6.8 0-2.9.1-5.7.2-8.6 0-1.3.2-2.7.2-4 .2-4.1.6-8.2.7-12.2 0-3.8-.1-7.6-.5-11.3-.5-3.2-1.5-6.5-2.2-9.8z" fill="#1f46b1"/><path class="st5" d="M36.5 192.8c.7 3.3 1.7 6.6 2.1 10 .5 3.7.5 7.5.5 11.3 0 4.1-.4 8.2-.7 12.2-.1 1.3-.2 2.7-.2 4-.1 2.9-.2 5.7-.2 8.6 0 2.3-.1 4.5 0 6.8.2 7.5 1.3 14.9 4.8 21.6 2.2 4.2 5 8.1 7.7 12 3.8 5.4 8 10.6 11.8 16 3 4.3 5 9.1 5.7 14.3.8 5.5.2 10.9-1.3 16.2-2 7-5.3 13.5-8.5 20-2.9 5.7-5.8 11.5-7.6 17.7-1.3 4.4-2.3 8.8-1.9 13.4.3 2.9 1.2 5.7 1.9 8.6H0V192.7h35c.5 0 1 0 1.5.1z"/><path class="st1" d="M67.2.5C67.1.4 67 .2 67 0h27.8c0 .1.1.1.1.2H68.7c-.6.1-1 .2-1.5.3z"/><path d="M94.9.2c0-.1 0-.2-.1-.2h21.4v.2H94.9z" fill="#4a71dd"/><path d="M95 .2h21.2c2.7 3.8 5.6 7.5 9.1 10.6 4.3 3.8 8.7 7.5 13.1 11.2 6.4 5.3 12.8 10.6 18 17.2 3.8 4.8 6.9 10 8.3 16 .7 3 1.2 6 1.6 9.1.3 2.5.4 5 .5 7.6.1 6.5.1 13 .3 19.5.1 5.5.7 10.9 2.2 16.2 2.2 7.8 5.7 15.1 10.4 21.6 4.3 5.9 8.9 11.6 13.5 17.2 6.2 7.5 13 14.6 18.4 22.8 4.2 6.3 7.5 13 9.7 20.2.3 1.1.6 2.3.9 3.4h-73.6c.3-1.8.8-3.5.9-5.3.4-5.7-.5-11.2-2.2-16.6-3-9.6-8-18.3-13.2-26.8-4.1-6.8-8.4-13.5-11.7-20.8-3.5-7.9-5.9-16-5.1-24.7.2-2.3.4-4.6.9-6.9 1.2-5.1 2.5-10.3 3.8-15.4 1.5-5.7 3-11.3 3.4-17.2.6-8.2-1.5-15.8-6.1-22.7-3.7-5.7-8.3-10.7-12.7-15.8-4-4.7-7.6-9.6-10-15.3-.6-1.6-1-3.4-1.6-5.1z" fill="#2555d8"/><path class="st2" d="M148.6 192.7H222c-.5.1-1 .2-1.5.2H136c-.1-.1-.1-.2-.2-.3 4.3.1 8.5.1 12.8.1z"/><path class="st5" d="M148.6 192.7H58.8c2-9.3 6.6-17.6 10.8-26 3-5.9 6-11.7 7.9-18 1-3.1 1.5-6.3 2.1-9.5.3-1.8.6-3.7.5-5.5-.3-6.3-1.6-12.5-4.5-18.2-2.6-5-5.4-9.8-8.2-14.7-3.5-6.1-7.2-12-10.5-18.1-1.7-3.2-2.9-6.8-4-10.3-.8-2.5-1.1-5.1-1.4-7.7-.8-6.5.9-12.6 3.3-18.5 2.5-6.2 5.6-12.2 8.1-18.5 1.6-4 3.1-8 4.2-12.2.7-2.7 1-5.7 1-8.5 0-2.2-.6-4.4-.9-6.5.5-.1 1-.3 1.5-.3H95c.6 1.7 1 3.4 1.7 5.1 2.4 5.7 6 10.7 10 15.3 4.4 5.1 9 10.1 12.7 15.8 4.6 6.9 6.7 14.4 6.1 22.7-.4 5.9-1.9 11.5-3.4 17.2-1.4 5.1-2.7 10.2-3.8 15.4-.5 2.2-.6 4.6-.9 6.9-.8 8.7 1.6 16.8 5.1 24.7 3.2 7.3 7.5 14 11.7 20.8 5.2 8.5 10.2 17.2 13.2 26.8 1.7 5.4 2.6 10.9 2.2 16.6-.2 1.7-.7 3.4-1 5.2z"/></svg>