<svg version="1.1" id="prefix__Layer_1" xmlns="http://www.w3.org/2000/svg" x="0" y="0" viewBox="0 0 288 288" xml:space="preserve"><style>.prefix__st0{fill:#fff}</style><path class="prefix__st0" d="M144.4 264.9c-66.4 0-120.5-54.1-120.5-120.5C23.9 77.9 78 23.8 144.4 23.8s120.5 54.1 120.5 120.5c0 21-5.4 40.8-14.9 58l11.7 7.2c10.8-19.3 16.9-41.5 16.9-65.2 0-74-60.2-134.2-134.2-134.2-74 0-134.2 60.2-134.2 134.2s60.2 134.2 134.2 134.2h2v-13.7c-.6.1-1.3.1-2 .1z"/><path class="prefix__st0" d="M154.6 50.8c40.2 4.1 74.8 34.1 82.8 75.8 9.7 50.9-23.8 100.2-74.7 109.8-50.9 9.7-100.2-23.8-109.8-74.7-4.4-22.9 0-45.4 10.8-64.2l-9.2-6.3C42.1 112.5 37 138 42 163.9c10.9 56.9 66 94.4 122.9 83.5s94.4-66 83.5-122.9c-9.1-47.8-47.1-81.8-93.5-85.1l-.3 11.4zM171.2 261.1l1.3-.2 2.6 14.3c-1.2.2-2.5.5-3.7.7l-1.1-6.4-2.5 3.7-.4.1-3.6-2.6 1.1 6.4c-1.2.2-2.5.5-3.7.7l-2.6-14.3 1.4-.2 6.7 5.2 4.5-7.4zM188.8 269.1l-5.4 1.8-.2 2-3.4 1.1-.2-.5 1.7-15.5 1.5-.5 10.7 11.4.2.5-3.4 1.1-1.5-1.4zm-4.9-5.7l-.4 4.1 3.1-1-2.7-3.1zM208.7 261.8l.2.5-3.7 1.8-4.1-2.8-1.7.8 1.9 3.9c-1.1.5-2.3 1.1-3.3 1.6-2.1-4.4-4.2-8.7-6.3-13.1 1.9-.9 3.8-1.9 5.7-2.8 5.1-2.5 9.1 3.3 6.9 7.1l4.4 3zm-10-7l-2.4 1.2c.5 1.1 1.1 2.2 1.6 3.3l2.4-1.2c1.8-1 .3-4.2-1.6-3.3zM214.3 252.7l-.4 2.1 2.1 3.2-3 1.9-7.8-12 3-1.9 3.4 5.3.1-2.2.2-5.5 3.7-2.4-.7 8 8.5 4-3.5 2.3-5.6-2.8zM226.9 235.8c-1.7 1.4-2.5 2.1-4.1 3.4l1.3 1.6 3.8-3.2c.7.9 1.4 1.7 2.1 2.5l-3.8 3.2c.5.6 1.1 1.3 1.6 2 1.6-1.4 2.6-2.2 4.3-3.6.7.8 1.4 1.7 2.1 2.5-2.6 2.2-4.5 3.8-7.1 5.9-3.1-3.7-6.2-7.5-9.3-11.2 2.6-2.1 4.4-3.6 7-5.8.7 1 1.4 1.8 2.1 2.7zM229.7 233.2c-.8-.8-1.6-1.5-2.4-2.3l7.4-7.8c.8.8 1.6 1.5 2.4 2.3l-2.4 2.6 8.1 7.7c-.9.9-1.7 1.8-2.5 2.7l-8.1-7.7-2.5 2.5zM249.6 220.7c-.8-.6-1.7.2-2.7 1.3-2.1 2.4-4.2 3.4-6.7 1.5-5.1-3.7 1.7-12.7 6.7-8.9-.8 1.1-1.4 1.8-2.1 2.8-1.5-1.2-3.8 2.1-2.4 3.2.8.7 1.7 0 2.6-1 2-2.1 4-4.1 6.9-1.9 4.9 3.7-2.1 13.2-7.2 9.3.8-1 1.4-1.9 2.2-2.9 1.3 1.3 4.1-2.3 2.7-3.4z"/><path class="prefix__st0" d="M174.6 143.5l4.1-34.7h39.6v12.1h-26.9l-1.5 13.6c1.1-.6 2.6-1.2 4.4-1.7 1.8-.5 3.6-.8 5.3-.8 6.7 0 11.9 2 15.5 6 3.6 4 5.4 9.6 5.4 16.8 0 4.3-1 8.3-2.9 11.8s-4.7 6.2-8.2 8.1-7.6 2.8-12.4 2.8c-4.2 0-8.2-.9-12-2.6s-6.6-4.1-8.8-7.2c-2.1-3.1-3.1-6.5-3.1-10.4H189c.2 2.5.9 4.4 2.4 5.9 1.4 1.5 3.3 2.2 5.6 2.2 5.3 0 7.9-3.9 7.9-11.7 0-7.2-3.2-10.8-9.7-10.8-3.7 0-6.4 1.2-8.2 3.5l-12.4-2.9zM159 108.3v12.3h-.7c-5.9 0-10.7 1.4-14.4 4.2s-6.1 6.7-7 11.7c3.5-3.5 8-5.2 13.4-5.2 5.9 0 10.5 2.1 14 6.4s5.2 9.9 5.2 16.9c0 4.3-1 8.3-3.1 11.9-2 3.6-4.9 6.4-8.5 8.4-3.6 2-7.7 3.1-12.1 3.1-4.8 0-9.1-1.1-12.9-3.3-3.8-2.2-6.7-5.3-8.8-9.4-2.1-4.1-3.2-8.8-3.3-14.1V145c0-7 1.5-13.3 4.5-18.8 3-5.6 7.3-9.9 12.8-13.1 5.6-3.2 11.7-4.8 18.5-4.8h2.4zm-14.2 35.2c-2.1 0-3.8.5-5.2 1.4-1.4 1-2.4 2.1-3.1 3.5v4.7c0 8.5 3 12.8 8.9 12.8 2.4 0 4.4-1.1 6-3.2 1.6-2.1 2.4-4.8 2.4-8 0-3.3-.8-6-2.4-8.1-1.7-2.1-3.9-3.1-6.6-3.1zM84.5 136.6h7.4c5.9 0 8.8-2.9 8.8-8.6 0-2.2-.7-4.1-2.1-5.5s-3.4-2.1-5.9-2.1c-2.1 0-3.9.6-5.4 1.8-1.5 1.2-2.3 2.7-2.3 4.5H69.3c0-3.6 1-6.8 3-9.5 2-2.8 4.7-5 8.3-6.5 3.5-1.6 7.4-2.3 11.6-2.3 7.5 0 13.5 1.7 17.8 5.2 4.3 3.4 6.5 8.2 6.5 14.2 0 2.9-.9 5.7-2.7 8.3-1.8 2.6-4.4 4.7-7.8 6.3 3.6 1.3 6.4 3.3 8.5 5.9s3.1 5.9 3.1 9.8c0 6.1-2.3 10.9-7 14.5S99.7 178 92.2 178c-4.4 0-8.6-.9-12.4-2.5-3.8-1.7-6.7-4-8.6-7-2-3-2.9-6.4-2.9-10.2H84c0 2.1.8 3.9 2.5 5.4 1.7 1.5 3.7 2.3 6.2 2.3 2.8 0 5-.8 6.6-2.3 1.6-1.5 2.5-3.5 2.5-5.9 0-3.4-.8-5.8-2.6-7.3s-4.1-2.1-7.1-2.1h-7.6v-11.8z"/><g><path class="prefix__st0" d="M79.9 78.2l.4.3-2.7 3.1-4.8-1-1.3 1.4 3.2 2.8c-.8.9-1.7 1.9-2.4 2.8-3.6-3.2-7.2-6.3-10.8-9.5 1.4-1.6 2.8-3.2 4.2-4.7 3.8-4.2 9.6-.5 9 3.9l5.2.9zm-11.8-2.6c-.6.6-1.2 1.3-1.7 2l2.7 2.4 1.7-2c1.3-1.5-1.3-3.9-2.7-2.4zM83.1 61.9c-1.7 1.3-2.5 2-4.1 3.4l1.3 1.6 3.8-3.1c.7.9 1.4 1.7 2.1 2.5l-3.8 3.1c.5.7 1.1 1.3 1.6 2 1.6-1.3 2.6-2.1 4.3-3.5.7.8 1.4 1.7 2.1 2.5-2.6 2.1-4.5 3.7-7.1 5.8-3-3.7-6.1-7.5-9.1-11.2 2.6-2.1 4.3-3.5 7-5.7.5.8 1.2 1.7 1.9 2.6zM87.3 58.9c-.6-1-1.1-1.9-1.7-2.8l9.2-5.5c.6.9 1.1 1.9 1.7 2.8l-3 1.8 5.7 9.6c-1 .6-2.1 1.2-3.1 1.9l-5.7-9.6-3.1 1.8zM111.7 56.8l-5.3 2.2-.1 2-3.3 1.4-.2-.5.7-15.5 1.5-.6 11.3 10.6.2.5-3.3 1.4-1.5-1.5zm-5.3-5.3l-.1 4.1 3.1-1.2-3-2.9zM126.6 51.2l.7 3.2-7.1 1.7-.7-3.2 1.8-.4-1.8-7.8-1.6.4-.7-3.1 6.8-1.6.7 3.1-1.6.4 1.8 7.8 1.7-.5zM136.1 49.8l5.2-.5c.1 1.2.2 2.1.3 3.3-2.9.2-6 .5-8.9.8L131.5 39c1.2-.1 2.4-.2 3.7-.3.6 7.5.4 5 .9 11.1z"/></g></svg>