<svg version="1.1" id="prefix__Layer_1" xmlns="http://www.w3.org/2000/svg" x="0" y="0" viewBox="0 0 288 288" xml:space="preserve"><style>.prefix__st0{fill:#22212d}</style><path class="prefix__st0" d="M144.41 264.88c-66.45 0-120.51-54.06-120.51-120.52 0-66.45 54.06-120.52 120.51-120.52S264.93 77.9 264.93 144.36c0 21.01-5.41 40.77-14.9 57.99l11.72 7.18c10.76-19.31 16.91-41.53 16.91-65.16 0-74.03-60.23-134.25-134.25-134.25-74.03 0-134.25 60.22-134.25 134.25s60.23 134.25 134.25 134.25c.68 0 1.35-.02 2.02-.03v-13.74c-.67.02-1.35.03-2.02.03z"/><path d="M154.62 50.77c40.25 4.1 74.84 34.12 82.8 75.84 9.7 50.87-23.8 100.15-74.67 109.84-50.87 9.7-100.15-23.8-109.84-74.67-4.36-22.88.04-45.43 10.8-64.2l-9.23-6.27c-12.36 21.15-17.45 46.67-12.52 72.56 10.85 56.91 65.97 94.38 122.87 83.53s94.38-65.97 83.53-122.87c-9.11-47.81-47.06-81.82-93.48-85.06l-.26 11.3z" fill="#2555d9"/><path class="prefix__st0" d="M171.24 261.15l1.31-.24 2.58 14.34c-1.25.22-2.49.45-3.74.67l-1.15-6.38-2.47 3.74-.41.07-3.6-2.64 1.15 6.38c-1.25.22-2.49.45-3.74.67l-2.58-14.34 1.35-.24 6.72 5.21 4.58-7.24zM188.8 269.15l-5.43 1.81-.23 2-3.45 1.15-.17-.51 1.72-15.52 1.52-.51 10.7 11.38.17.51-3.45 1.15-1.38-1.46zm-4.95-5.72l-.35 4.14 3.15-1.05-2.8-3.09zM208.7 261.78l.23.49-3.74 1.81-4.1-2.76-1.74.84 1.86 3.85c-1.12.54-2.26 1.09-3.34 1.62-2.11-4.35-4.21-8.71-6.33-13.08 1.89-.91 3.83-1.85 5.73-2.78 5.15-2.47 9.07 3.27 6.85 7.11l4.58 2.9zm-9.97-7.03c-.79.36-1.61.78-2.39 1.16.52 1.07 1.08 2.22 1.58 3.27l2.39-1.16c1.81-.88.33-4.17-1.58-3.27zM214.31 252.68l-.38 2.1 2.06 3.17-2.98 1.94-7.79-12.01 2.98-1.94 3.44 5.29.05-2.2.22-5.5 3.69-2.39-.73 8.03 8.53 3.98-3.54 2.3-5.55-2.77zM226.92 235.78c-1.66 1.38-2.49 2.07-4.13 3.44l1.31 1.58 3.8-3.16c.7.85 1.41 1.69 2.11 2.54l-3.79 3.16c.54.65 1.08 1.29 1.63 1.96 1.64-1.37 2.6-2.17 4.27-3.56.69.83 1.41 1.69 2.11 2.53-2.61 2.18-4.53 3.77-7.11 5.93-3.11-3.73-6.22-7.46-9.3-11.16 2.58-2.15 4.35-3.63 6.97-5.81.69.83 1.41 1.69 2.13 2.55zM229.71 233.22c-.81-.77-1.61-1.53-2.4-2.29l7.45-7.81c.8.76 1.59 1.52 2.4 2.29l-2.45 2.57 8.11 7.74-2.54 2.66-8.11-7.74-2.46 2.58zM249.61 220.73c-.81-.61-1.72.21-2.66 1.33-2.08 2.39-4.19 3.4-6.74 1.53-5.09-3.67 1.7-12.7 6.66-8.86l-2.12 2.82c-1.54-1.16-3.76 2.06-2.45 3.2.83.73 1.66 0 2.56-.96 1.98-2.12 4.03-4.12 6.93-1.93 4.88 3.67-2.15 13.19-7.21 9.28.75-1 1.4-1.86 2.16-2.87 1.49 1.11 4.23-2.51 2.87-3.54zM174.62 143.48l4.14-34.67h39.61v12.1h-26.86l-1.54 13.56c1.12-.65 2.58-1.23 4.4-1.73 1.82-.5 3.59-.75 5.33-.75 6.73 0 11.91 1.99 15.52 5.98 3.61 3.99 5.42 9.58 5.42 16.78 0 4.34-.97 8.28-2.91 11.8-1.94 3.52-4.66 6.23-8.17 8.12-3.51 1.89-7.65 2.84-12.43 2.84-4.25 0-8.24-.88-11.96-2.63-3.72-1.75-6.64-4.15-8.75-7.21-2.11-3.05-3.15-6.5-3.12-10.35h15.73c.16 2.48.95 4.44 2.37 5.9 1.43 1.46 3.3 2.18 5.63 2.18 5.28 0 7.91-3.9 7.91-11.71 0-7.22-3.23-10.82-9.68-10.82-3.66 0-6.39 1.18-8.19 3.53l-12.45-2.92zM158.99 108.32v12.33h-.7c-5.86 0-10.68 1.4-14.45 4.21-3.77 2.81-6.09 6.71-6.96 11.71 3.54-3.48 8.01-5.21 13.41-5.21 5.86 0 10.53 2.14 14.01 6.42 3.48 4.28 5.21 9.9 5.21 16.85 0 4.31-1.02 8.27-3.05 11.87-2.03 3.6-4.87 6.42-8.52 8.45-3.65 2.03-7.69 3.05-12.12 3.05-4.81 0-9.11-1.09-12.89-3.28-3.79-2.19-6.73-5.31-8.84-9.38-2.11-4.06-3.2-8.75-3.26-14.06V145c0-6.98 1.5-13.26 4.49-18.83 2.99-5.57 7.27-9.94 12.82-13.1 5.55-3.16 11.71-4.75 18.48-4.75h2.37zm-14.15 35.14c-2.08 0-3.82.48-5.21 1.44-1.4.96-2.44 2.13-3.12 3.52v4.68c0 8.53 2.96 12.79 8.89 12.79 2.39 0 4.38-1.07 5.98-3.2 1.6-2.13 2.4-4.8 2.4-8.02 0-3.31-.81-6-2.44-8.09-1.64-2.07-3.8-3.12-6.5-3.12zM84.54 136.62h7.4c5.87 0 8.8-2.87 8.8-8.61 0-2.23-.7-4.06-2.1-5.47-1.4-1.41-3.37-2.12-5.91-2.12-2.08 0-3.89.6-5.42 1.82-1.54 1.21-2.3 2.72-2.3 4.51H69.32c0-3.57.99-6.75 2.98-9.54 1.99-2.79 4.74-4.97 8.26-6.54 3.52-1.57 7.39-2.35 11.61-2.35 7.54 0 13.47 1.72 17.78 5.17 4.31 3.44 6.47 8.18 6.47 14.2 0 2.92-.89 5.67-2.68 8.26-1.78 2.59-4.38 4.69-7.8 6.31 3.6 1.3 6.42 3.28 8.47 5.93 2.05 2.65 3.07 5.93 3.07 9.84 0 6.05-2.33 10.89-6.98 14.52-4.65 3.63-10.77 5.45-18.34 5.45-4.44 0-8.56-.85-12.36-2.54-3.8-1.69-6.68-4.03-8.63-7.03-1.96-2.99-2.93-6.4-2.93-10.22h15.78c0 2.08.84 3.88 2.51 5.4 1.68 1.52 3.74 2.28 6.19 2.28 2.76 0 4.96-.77 6.61-2.3 1.64-1.54 2.47-3.5 2.47-5.89 0-3.41-.85-5.83-2.56-7.26-1.71-1.43-4.07-2.14-7.08-2.14h-7.63v-11.68z"/><g><path class="prefix__st0" d="M79.91 78.23l.4.35-2.73 3.08-4.81-.96-1.27 1.43 3.18 2.81c-.82.93-1.65 1.87-2.44 2.76l-10.8-9.54c1.38-1.56 2.79-3.16 4.18-4.73 3.76-4.23 9.55-.49 8.99 3.88l5.3.92zm-11.81-2.6c-.59.63-1.17 1.33-1.74 1.97.88.78 1.83 1.62 2.7 2.38l1.74-1.97c1.32-1.5-1.3-3.94-2.7-2.38zM83.08 61.86c-1.66 1.35-2.49 2.03-4.13 3.37l1.29 1.58 3.8-3.09c.69.85 1.38 1.69 2.07 2.54l-3.8 3.09c.53.65 1.05 1.29 1.6 1.96 1.64-1.34 2.6-2.12 4.27-3.48.68.83 1.38 1.69 2.07 2.54-2.62 2.13-4.53 3.69-7.11 5.8-3.04-3.73-6.08-7.46-9.1-11.16 2.58-2.11 4.35-3.55 6.97-5.68.67.8 1.37 1.66 2.07 2.53zM87.26 58.87c-.57-.96-1.13-1.89-1.68-2.83l9.2-5.47c.56.94 1.11 1.87 1.68 2.83l-3.03 1.8 5.68 9.56c-1.04.62-2.09 1.24-3.13 1.86l-5.68-9.56-3.04 1.81zM111.71 56.85L106.45 59l-.1 2-3.34 1.36-.2-.5.69-15.46 1.47-.6 11.33 10.56.2.5-3.34 1.36-1.45-1.37zm-5.27-5.34l-.08 4.12 3.05-1.24-2.97-2.88zM126.57 51.18l.73 3.15-7.11 1.66-.73-3.15 1.78-.41-1.8-7.76-1.64.38-.73-3.13 6.83-1.59.73 3.13-1.64.38 1.8 7.76 1.78-.42zM136.15 49.83l5.21-.45c.11 1.23.18 2.07.28 3.3-2.95.25-5.99.51-8.9.77l-1.23-14.35c1.23-.11 2.44-.21 3.69-.32.63 7.42.42 4.94.95 11.05z"/></g></svg>